<svg xmlns="http://www.w3.org/2000/svg" width="512" height="512" viewBox="0 0 512 512" version="1.1">
	<path d="M 303.640 11.583 C 295.852 14.053, 290.111 20.610, 286.637 31 C 285.074 35.675, 281.736 43.893, 279.219 49.263 L 274.642 59.025 271.299 52.763 C 269.459 49.318, 266.606 45.150, 264.958 43.500 C 262.304 40.843, 261.286 40.500, 256.046 40.500 C 250.851 40.500, 249.754 40.861, 247.034 43.467 C 243.168 47.171, 232.970 67.009, 229.504 77.569 C 228.072 81.931, 226.732 86.010, 226.526 86.634 C 226.255 87.457, 224.419 87.366, 219.826 86.301 C 210.910 84.235, 193.974 82.292, 191 82.994 C 189.625 83.318, 187.600 85.010, 186.500 86.753 L 184.500 89.923 174.858 89.961 C 165.413 89.999, 165.204 89.949, 164.594 87.518 C 163.436 82.903, 159.331 81.810, 147.102 82.861 C 135.550 83.854, 132.510 85.047, 129.387 89.812 C 128.403 91.315, 127.606 94.492, 127.568 97.069 C 127.483 102.819, 129.777 105.986, 141.898 116.854 L 150.773 124.811 142.181 126.966 C 90.486 139.932, 44.547 177.221, 19.872 226.247 C -2.668 271.030, -6.162 326.830, 10.606 374.248 C 34.074 440.615, 92.372 488.869, 162 499.559 C 177.733 501.974, 202.770 501.769, 223 499.058 C 244.445 496.185, 266.618 496.113, 288.500 498.846 C 312.218 501.808, 321.080 502.216, 335.778 501.023 C 365.675 498.597, 393.177 490.051, 418.090 475.447 C 426.120 470.739, 428.309 467.881, 427.426 463.255 C 426.952 460.773, 427.667 459.919, 434.646 454.632 C 441.125 449.725, 442.686 448.947, 444.183 449.882 C 448.311 452.460, 450.960 451.248, 458.670 443.250 C 485.507 415.414, 503.340 379.939, 509.569 342 C 510.337 337.325, 510.973 331.839, 510.983 329.809 C 510.992 327.779, 511.450 325.840, 512 325.500 C 512.595 325.132, 513 318.803, 513 309.882 C 513 301.632, 512.613 295.121, 512.141 295.413 C 511.669 295.705, 510.981 292.701, 510.612 288.738 C 507.746 257.896, 493.787 223.043, 473.711 196.598 C 466.055 186.515, 451.759 171.601, 442.395 163.929 C 421.661 146.943, 394.680 133.202, 369.819 126.966 L 361.227 124.811 370.102 116.854 C 382.223 105.986, 384.517 102.819, 384.432 97.069 C 384.357 92.008, 382.262 88.057, 378.264 85.437 C 374.978 83.284, 360.728 82.120, 336.817 82.051 L 319.135 82 323.480 73.250 C 330.095 59.928, 336.004 41.909, 335.978 35.139 C 335.912 18.249, 319.747 6.475, 303.640 11.583 M 250.232 68.750 C 247.437 74.662, 243.990 83.550, 242.572 88.500 C 238.044 104.296, 234.730 106.343, 219.797 102.567 C 208.421 99.690, 201 98.684, 201 100.019 C 201 102.134, 209.080 108.914, 215.177 111.916 C 218.710 113.655, 226.078 116.007, 231.550 117.143 C 244.537 119.838, 264.359 119.275, 288.500 115.523 C 301.996 113.426, 309.004 112.885, 322.500 112.902 C 331.850 112.913, 341.584 113.322, 344.132 113.810 L 348.764 114.698 357.306 107.129 C 362.003 102.967, 365.630 99.210, 365.364 98.780 C 365.099 98.351, 354.221 98.003, 341.191 98.006 C 316.450 98.012, 305.092 99.115, 290.556 102.922 C 284.094 104.615, 282.364 104.736, 279.306 103.711 C 274.401 102.068, 272.460 99.080, 269.428 88.500 C 266.900 79.680, 257.355 58, 256 58 C 255.622 58, 253.026 62.837, 250.232 68.750 M 0.402 311 C 0.402 319.525, 0.556 323.012, 0.743 318.750 C 0.931 314.488, 0.931 307.512, 0.743 303.250 C 0.556 298.988, 0.402 302.475, 0.402 311" stroke="none" fill="black" fill-rule="evenodd"/>
</svg>